<svg xmlns="http://www.w3.org/2000/svg" viewBox="-174 -174 348 348" width="348" height="348">
  <rect x="-174" y="-174" width="348" height="348" fill="#f8f6fc"/>
  <path d="M -145 -150 L -119 -150 L -99 -130 L -79 -150 L -53 -150 L -33 -130 L -13 -150 L 13 -150 L 33 -130 L 53 -150 L 79 -150 L 99 -130 L 119 -150 L 145 -150 C 147.76114237 -150, 150 -147.76114237, 150 -145 L 150 -119 L 130 -99 L 150 -79 L 150 -53 L 130 -33 L 150 -13 L 150 13 L 130 33 L 150 53 L 150 79 L 130 99 L 150 119 L 150 145 C 150 147.76114237, 147.76114237 150, 145 150 L 119 150 L 99 130 L 79 150 L 53 150 L 33 130 L 13 150 L -13 150 L -33 130 L -53 150 L -79 150 L -99 130 L -119 150 L -145 150 C -147.76114237 150, -150 147.76114237, -150 145 L -150 119 L -130 99 L -150 79 L -150 53 L -130 33 L -150 13 L -150 -13 L -130 -33 L -150 -53 L -150 -79 L -130 -99 L -150 -119 L -150 -145 C -150 -147.76114237, -147.76114237 -150, -145 -150" fill="rgba(109,40,217,0.08)" stroke="#6d28d9" stroke-width="2" stroke-linejoin="round"/>
</svg>